<svg xmlns="http://www.w3.org/2000/svg" viewBox="0 0 651.33 363.33"><defs><style>.cls-1,.cls-11,.cls-12,.cls-22,.cls-28,.cls-30,.cls-31,.cls-33,.cls-36,.cls-37,.cls-41,.cls-6{fill:none;}.cls-1,.cls-37,.cls-38{stroke:#dee3fc;}.cls-1,.cls-11,.cls-22,.cls-28,.cls-29,.cls-30,.cls-31,.cls-33,.cls-36,.cls-37,.cls-38,.cls-41{stroke-miterlimit:10;}.cls-1{stroke-width:0.79px;}.cls-2{fill:#dee3fc;}.cls-3{fill:#a4afff;}.cls-29,.cls-4{fill:#fff;}.cls-5{fill:#3945ba;}.cls-6{stroke:#698bd1;stroke-dasharray:2.84;}.cls-12,.cls-31,.cls-33,.cls-36,.cls-37,.cls-41,.cls-6{stroke-linecap:round;}.cls-12,.cls-6{stroke-linejoin:round;}.cls-7{fill:#4b5a9b;}.cls-8{fill:#7f95f4;}.cls-9{fill:#b2c1f9;}.cls-10{fill:#3052ce;}.cls-11,.cls-12,.cls-29,.cls-30,.cls-31{stroke:#495ad6;}.cls-11,.cls-28,.cls-29,.cls-33{stroke-width:0.9px;}.cls-12,.cls-30,.cls-31{stroke-width:1.67px;}.cls-13{fill:#f0f4ff;}.cls-14{fill:#3b47bc;}.cls-15{fill:#495ad6;}.cls-16{fill:#281616;}.cls-17{fill:#002c54;}.cls-18{fill:#052635;}.cls-19{fill:#e5918f;}.cls-20{fill:#c7e5f2;}.cls-21{fill:#cc6362;}.cls-22,.cls-28,.cls-33,.cls-36,.cls-41{stroke:#fff;}.cls-22{stroke-width:0.5px;}.cls-23{opacity:0.5;}.cls-24{fill:#375f84;}.cls-25{fill:#467cdb;}.cls-26{fill:#e49191;}.cls-27{fill:#5996ef;}.cls-32{fill:#193091;}.cls-34{fill:#6589d1;}.cls-35{fill:#3b5fb7;}.cls-36{stroke-width:2px;}.cls-38,.cls-39{fill:#7e89fd;}.cls-40{fill:#b4c1ef;}.cls-41{stroke-width:1.11px;}</style></defs><g id="OBJECTS"><path class="cls-1" d="M269.88,164V153.72a1.81,1.81,0,0,0-1.81-1.81h-2.64a1.67,1.67,0,0,1-1.63-1.28,36.08,36.08,0,0,0-4.57-11.08,1.72,1.72,0,0,1,.22-2.1l1.86-1.86a1.8,1.8,0,0,0,0-2.56l-7.25-7.25a1.8,1.8,0,0,0-2.56,0l-1.86,1.85a1.69,1.69,0,0,1-2.1.22,36.32,36.32,0,0,0-11.08-4.57,1.67,1.67,0,0,1-1.28-1.63V119a1.81,1.81,0,0,0-1.81-1.81H223.12A1.82,1.82,0,0,0,221.3,119v2.63a1.66,1.66,0,0,1-1.27,1.63,36.13,36.13,0,0,0-11.09,4.57,1.69,1.69,0,0,1-2.1-.22L205,125.78a1.82,1.82,0,0,0-2.57,0L195.18,133a1.8,1.8,0,0,0,0,2.56l1.85,1.86a1.68,1.68,0,0,1,.22,2.09,36.48,36.48,0,0,0-4.57,11.09,1.66,1.66,0,0,1-1.63,1.28h-2.63a1.82,1.82,0,0,0-1.82,1.81V164a1.83,1.83,0,0,0,1.82,1.82h2.64a1.65,1.65,0,0,1,1.62,1.27,36.58,36.58,0,0,0,4.57,11.08,1.69,1.69,0,0,1-.22,2.1l-1.85,1.86a1.82,1.82,0,0,0,0,2.57l7.24,7.24a1.82,1.82,0,0,0,2.57,0l1.86-1.85a1.71,1.71,0,0,1,2.1-.23A36.32,36.32,0,0,0,220,194.4,1.65,1.65,0,0,1,221.3,196v2.64a1.82,1.82,0,0,0,1.82,1.81h10.25a1.81,1.81,0,0,0,1.81-1.81V196a1.66,1.66,0,0,1,1.28-1.63,36.32,36.32,0,0,0,11.08-4.57,1.71,1.71,0,0,1,2.1.22l1.86,1.86a1.8,1.8,0,0,0,2.56,0l7.25-7.24a1.82,1.82,0,0,0,0-2.57l-1.86-1.86a1.69,1.69,0,0,1-.22-2.1,36.32,36.32,0,0,0,4.57-11.08,1.65,1.65,0,0,1,1.63-1.27h2.64A1.82,1.82,0,0,0,269.88,164Zm-41.64,23.78a28.9,28.9,0,1,1,28.88-28.91A28.89,28.89,0,0,1,228.24,187.75Z" transform="translate(-49.33 -77.59)"/><path class="cls-2" d="M317,198.67v-7a1.23,1.23,0,0,0-1.23-1.23H314a1.13,1.13,0,0,1-1.11-.88,24.72,24.72,0,0,0-3.11-7.55,1.15,1.15,0,0,1,.15-1.43l1.26-1.26a1.23,1.23,0,0,0,0-1.75l-4.94-4.94a1.24,1.24,0,0,0-1.75,0l-1.26,1.26a1.15,1.15,0,0,1-1.43.15,24.62,24.62,0,0,0-7.55-3.11,1.13,1.13,0,0,1-.87-1.11V168a1.24,1.24,0,0,0-1.24-1.24h-7a1.23,1.23,0,0,0-1.23,1.24v1.79a1.14,1.14,0,0,1-.87,1.11,24.68,24.68,0,0,0-7.56,3.11,1.15,1.15,0,0,1-1.43-.15l-1.26-1.26a1.24,1.24,0,0,0-1.75,0l-4.94,4.94a1.24,1.24,0,0,0,0,1.75l1.27,1.26a1.16,1.16,0,0,1,.15,1.43,25,25,0,0,0-3.12,7.55,1.13,1.13,0,0,1-1.11.88h-1.79a1.23,1.23,0,0,0-1.24,1.23v7a1.23,1.23,0,0,0,1.24,1.23h1.79a1.13,1.13,0,0,1,1.11.88,25,25,0,0,0,3.12,7.55,1.16,1.16,0,0,1-.15,1.43L266.11,211a1.24,1.24,0,0,0,0,1.75l4.94,4.94a1.24,1.24,0,0,0,1.75,0l1.27-1.27a1.16,1.16,0,0,1,1.43-.15,24.52,24.52,0,0,0,7.55,3.11,1.14,1.14,0,0,1,.87,1.11v1.8a1.23,1.23,0,0,0,1.23,1.24h7a1.24,1.24,0,0,0,1.24-1.24v-1.8a1.13,1.13,0,0,1,.87-1.11,24.62,24.62,0,0,0,7.55-3.11,1.16,1.16,0,0,1,1.43.15l1.26,1.27a1.24,1.24,0,0,0,1.75,0l4.94-4.94a1.23,1.23,0,0,0,0-1.75l-1.26-1.26a1.14,1.14,0,0,1-.15-1.43,24.72,24.72,0,0,0,3.11-7.55,1.13,1.13,0,0,1,1.11-.88h1.8A1.23,1.23,0,0,0,317,198.67Zm-28.37,15.09a18.58,18.58,0,1,1,18.57-18.59A18.58,18.58,0,0,1,288.65,213.76Z" transform="translate(-49.33 -77.59)"/><circle class="cls-3" cx="136.16" cy="302.63" r="3.39"/><circle class="cls-3" cx="589.79" cy="210.11" r="3.39"/><circle class="cls-3" cx="583.02" cy="89.2" r="3.39"/><circle class="cls-3" cx="461.27" cy="48.11" r="2.12"/><path class="cls-3" d="M198.75,97.41a2.13,2.13,0,1,1-2.13-2.12A2.13,2.13,0,0,1,198.75,97.41Z" transform="translate(-49.33 -77.59)"/><path class="cls-3" d="M245.76,228.21a2.13,2.13,0,1,1-2.13-2.13A2.12,2.12,0,0,1,245.76,228.21Z" transform="translate(-49.33 -77.59)"/><path class="cls-3" d="M167.83,383.62a2.12,2.12,0,1,1-2.12-2.13A2.12,2.12,0,0,1,167.83,383.62Z" transform="translate(-49.33 -77.59)"/><circle class="cls-3" cx="540.12" cy="304.64" r="3.39"/><circle class="cls-3" cx="612.12" cy="304.64" r="3.39"/><circle class="cls-3" cx="207.79" cy="10.58" r="3.39"/><path class="cls-3" d="M490.75,242.24a4.53,4.53,0,1,1-4.53-4.54A4.53,4.53,0,0,1,490.75,242.24Z" transform="translate(-49.33 -77.59)"/><path class="cls-3" d="M156.58,186.21a4.53,4.53,0,1,1-4.53-4.53A4.53,4.53,0,0,1,156.58,186.21Z" transform="translate(-49.33 -77.59)"/><rect class="cls-4" x="88.14" y="33.96" width="7.03" height="7.03" rx="0.66"/><rect class="cls-4" x="97.54" y="33.96" width="7.03" height="7.03" rx="0.66"/><rect class="cls-4" x="106.94" y="33.96" width="7.03" height="7.03" rx="0.66"/><rect class="cls-2" x="566.72" y="280.69" width="7.03" height="7.03" rx="0.66"/><rect class="cls-2" x="576.12" y="280.69" width="7.03" height="7.03" rx="0.66"/><rect class="cls-2" x="585.52" y="280.69" width="7.03" height="7.03" rx="0.66"/><rect class="cls-2" x="132.25" y="276.84" width="7.03" height="7.03" rx="0.66"/><rect class="cls-2" x="141.65" y="276.84" width="7.03" height="7.03" rx="0.66"/><rect class="cls-2" x="151.05" y="276.84" width="7.03" height="7.03" rx="0.66"/><rect class="cls-5" x="236.67" y="0.39" width="178" height="343.86" rx="21.35"/><rect class="cls-4" x="240" y="3.41" width="171.33" height="335.96" rx="18.7"/><path class="cls-2" d="M453.17,99.11V397.33A12.66,12.66,0,0,1,440.5,410h-131a12.66,12.66,0,0,1-12.67-12.66V99.11A12.66,12.66,0,0,1,309.5,86.45h21.84a3.2,3.2,0,0,1,2.87,1.77l2.32,4.63a6.24,6.24,0,0,0,5.61,3.47h65.72a6.24,6.24,0,0,0,5.61-3.47l2.32-4.63a3.2,3.2,0,0,1,2.87-1.77H440.5A12.66,12.66,0,0,1,453.17,99.11Z" transform="translate(-49.33 -77.59)"/><path class="cls-2" d="M402.58,90.91H349.65a2.23,2.23,0,0,1-2.23-2.23h0a2.23,2.23,0,0,1,2.23-2.23h52.93a2.23,2.23,0,0,1,2.23,2.23h0A2.23,2.23,0,0,1,402.58,90.91Z" transform="translate(-49.33 -77.59)"/><rect class="cls-6" x="256.87" y="263.7" width="134.55" height="58.35" rx="8.38"/><rect class="cls-6" x="312.59" y="137.89" width="70.52" height="40.97" rx="6.04"/><rect class="cls-7" x="261.76" y="188.69" width="135.08" height="65.3" rx="7.2"/><path class="cls-8" d="M440.75,268.19v50.93a7.18,7.18,0,0,1-7.19,7.18H313.39a7.18,7.18,0,0,1-7.19-7.18V268.19a7.19,7.19,0,0,1,7.19-7.19H433.56A7.19,7.19,0,0,1,440.75,268.19Z" transform="translate(-49.33 -77.59)"/><rect class="cls-4" x="263.08" y="198.27" width="45.12" height="45.12" rx="4.86"/><path class="cls-9" d="M394.64,281.58H363.46a1.54,1.54,0,0,1-1.54-1.54h0a1.54,1.54,0,0,1,1.54-1.53h31.18a1.53,1.53,0,0,1,1.53,1.53h0A1.53,1.53,0,0,1,394.64,281.58Z" transform="translate(-49.33 -77.59)"/><path class="cls-9" d="M380.43,287.71h-17a1.54,1.54,0,0,1-1.54-1.54h0a1.53,1.53,0,0,1,1.54-1.53h17a1.53,1.53,0,0,1,1.54,1.53h0A1.54,1.54,0,0,1,380.43,287.71Z" transform="translate(-49.33 -77.59)"/><path class="cls-9" d="M432.6,287.71H386.68a1.54,1.54,0,0,1-1.54-1.54h0a1.53,1.53,0,0,1,1.54-1.53H432.6a1.52,1.52,0,0,1,1.53,1.53h0A1.53,1.53,0,0,1,432.6,287.71Z" transform="translate(-49.33 -77.59)"/><path class="cls-9" d="M389.72,293.84H363.46a1.54,1.54,0,0,1-1.54-1.54h0a1.53,1.53,0,0,1,1.54-1.53h26.26a1.53,1.53,0,0,1,1.53,1.53h0A1.54,1.54,0,0,1,389.72,293.84Z" transform="translate(-49.33 -77.59)"/><path class="cls-9" d="M412,293.84H395.5A1.54,1.54,0,0,1,394,292.3h0a1.53,1.53,0,0,1,1.54-1.53H412a1.53,1.53,0,0,1,1.54,1.53h0A1.54,1.54,0,0,1,412,293.84Z" transform="translate(-49.33 -77.59)"/><path class="cls-9" d="M432.6,293.84H417.4a1.54,1.54,0,0,1-1.54-1.54h0a1.53,1.53,0,0,1,1.54-1.53h15.2a1.52,1.52,0,0,1,1.53,1.53h0A1.53,1.53,0,0,1,432.6,293.84Z" transform="translate(-49.33 -77.59)"/><path class="cls-9" d="M432.6,300H363.46a1.54,1.54,0,0,1-1.54-1.54h0a1.53,1.53,0,0,1,1.54-1.53H432.6a1.52,1.52,0,0,1,1.53,1.53h0A1.53,1.53,0,0,1,432.6,300Z" transform="translate(-49.33 -77.59)"/><path class="cls-9" d="M401.51,306.1H363.46a1.54,1.54,0,0,1-1.54-1.54h0a1.54,1.54,0,0,1,1.54-1.54h38.05a1.54,1.54,0,0,1,1.54,1.54h0A1.54,1.54,0,0,1,401.51,306.1Z" transform="translate(-49.33 -77.59)"/><path class="cls-9" d="M432.6,306.1h-25a1.54,1.54,0,0,1-1.54-1.54h0a1.54,1.54,0,0,1,1.54-1.54h25a1.53,1.53,0,0,1,1.53,1.54h0A1.53,1.53,0,0,1,432.6,306.1Z" transform="translate(-49.33 -77.59)"/><path class="cls-9" d="M385.82,312.22H363.46a1.53,1.53,0,0,1-1.54-1.53h0a1.54,1.54,0,0,1,1.54-1.54h22.36a1.54,1.54,0,0,1,1.53,1.54h0A1.53,1.53,0,0,1,385.82,312.22Z" transform="translate(-49.33 -77.59)"/><path class="cls-9" d="M414.22,312.22H391.87a1.53,1.53,0,0,1-1.54-1.53h0a1.54,1.54,0,0,1,1.54-1.54h22.35a1.54,1.54,0,0,1,1.54,1.54h0A1.53,1.53,0,0,1,414.22,312.22Z" transform="translate(-49.33 -77.59)"/><path class="cls-9" d="M432.6,312.22h-13a1.53,1.53,0,0,1-1.54-1.53h0a1.54,1.54,0,0,1,1.54-1.54h13a1.53,1.53,0,0,1,1.53,1.54h0A1.52,1.52,0,0,1,432.6,312.22Z" transform="translate(-49.33 -77.59)"/><path class="cls-9" d="M394.64,318.35H363.46a1.53,1.53,0,0,1-1.54-1.53h0a1.54,1.54,0,0,1,1.54-1.54h31.18a1.53,1.53,0,0,1,1.53,1.54h0A1.52,1.52,0,0,1,394.64,318.35Z" transform="translate(-49.33 -77.59)"/><path class="cls-9" d="M432.6,281.58H401.42a1.54,1.54,0,0,1-1.54-1.54h0a1.54,1.54,0,0,1,1.54-1.53H432.6a1.53,1.53,0,0,1,1.53,1.53h0A1.53,1.53,0,0,1,432.6,281.58Z" transform="translate(-49.33 -77.59)"/><path class="cls-10" d="M440.75,268.19v2.14H306.2v-2.14a7.19,7.19,0,0,1,7.19-7.19H433.56A7.19,7.19,0,0,1,440.75,268.19Z" transform="translate(-49.33 -77.59)"/><path class="cls-2" d="M415.39,265.83a1.67,1.67,0,1,1-3.33,0,1.67,1.67,0,0,1,3.33,0Z" transform="translate(-49.33 -77.59)"/><path class="cls-2" d="M423.92,265.83a1.67,1.67,0,1,1-1.67-1.66A1.67,1.67,0,0,1,423.92,265.83Z" transform="translate(-49.33 -77.59)"/><path class="cls-2" d="M432.44,265.83a1.67,1.67,0,1,1-1.66-1.66A1.66,1.66,0,0,1,432.44,265.83Z" transform="translate(-49.33 -77.59)"/><rect class="cls-11" x="264.74" y="137.93" width="40.93" height="40.93" rx="7.15"/><polyline class="cls-12" points="278.82 152.48 272.93 158.37 278.87 164.32"/><polyline class="cls-12" points="291.59 152.48 297.49 158.37 291.55 164.32"/><line class="cls-12" x1="287.97" y1="152.48" x2="282.45" y2="164.32"/><rect class="cls-9" x="256.87" y="29.85" width="134.55" height="99.63" rx="8.18"/><circle class="cls-13" cx="364.17" cy="56.16" r="19.5"/><path class="cls-4" d="M385.29,207.07H314.38a8.18,8.18,0,0,1-8.18-8.18V185.78l31-53.75a4.21,4.21,0,0,1,7.3,0L368,172.61l17.4,30.14A4.14,4.14,0,0,1,385.29,207.07Z" transform="translate(-49.33 -77.59)"/><path class="cls-13" d="M415.87,207.07H348.06L368,172.61,378.68,154a3.79,3.79,0,0,1,6.57,0Z" transform="translate(-49.33 -77.59)"/><rect class="cls-14" x="448.76" y="284.21" width="52.28" height="78.56"/><rect class="cls-15" x="550.37" y="361.8" width="20.02" height="78.56" transform="translate(1071.42 724.57) rotate(180)"/><rect class="cls-9" x="503.9" y="287.22" width="14.7" height="2.51"/><rect class="cls-9" x="503.9" y="292.61" width="14.7" height="2.51"/><rect class="cls-9" x="503.9" y="298" width="14.7" height="2.51"/><rect class="cls-9" x="503.9" y="303.38" width="14.7" height="2.51"/><rect class="cls-9" x="503.9" y="308.77" width="14.7" height="2.51"/><rect class="cls-9" x="503.9" y="314.15" width="14.7" height="2.51"/><rect class="cls-9" x="503.9" y="319.54" width="14.7" height="2.51"/><rect class="cls-9" x="503.9" y="324.93" width="14.7" height="2.51"/><rect class="cls-9" x="503.9" y="330.31" width="14.7" height="2.51"/><rect class="cls-9" x="503.9" y="335.7" width="14.7" height="2.51"/><rect class="cls-9" x="503.9" y="341.09" width="14.7" height="2.51"/><rect class="cls-9" x="503.9" y="346.47" width="14.7" height="2.51"/><rect class="cls-9" x="503.9" y="351.86" width="14.7" height="2.51"/><rect class="cls-9" x="503.9" y="357.24" width="14.7" height="2.51"/><path class="cls-16" d="M489.6,440.36h26.57s1.48-4.73-1.73-10.59c0,0-2.14,1.72-8.55.56a27.92,27.92,0,0,1-4.52,3.15C499.52,434.38,488.88,436.47,489.6,440.36Z" transform="translate(-49.33 -77.59)"/><path class="cls-17" d="M491.45,365.45c1.72,10.24,9.64,44.88,13,65.34,6.22.53,9.21-.18,10.79-.55-.31-7.13-.92-24.2-.85-31.69.12-12.65.71-29.33-4.86-38.49l-18.72,1.48c.11,1,.22,1.79.31,2.37S491.35,365,491.45,365.45Z" transform="translate(-49.33 -77.59)"/><path class="cls-16" d="M441.54,440.36h26.57s1.49-4.73-1.73-10.59c0,0-2.14,1.72-8.54.56a28.42,28.42,0,0,1-4.52,3.15C451.46,434.38,440.83,436.47,441.54,440.36Z" transform="translate(-49.33 -77.59)"/><path class="cls-18" d="M457.07,430.19a30.28,30.28,0,0,0,10.49.94c1.41-8.22,3.64-26.32,5.65-34.81,3.12-13.18,6.17-31.32,4.05-37.79l-18.42-4.62C458.78,354.49,457.28,410,457.07,430.19Z" transform="translate(-49.33 -77.59)"/><path class="cls-18" d="M530.38,335h0c-.37-3.65-.8-6.3-.8-6.3l-20.58,5-17.48,4c-6.48,1.44-14.31,3.18-21.21,4.74-7.75,1.76-12.89,7.64-11.19,15.4l1.94,9.4c10.83-.14,61.76-5,66.12-7.23C532.1,357.58,533.58,348.79,530.38,335Z" transform="translate(-49.33 -77.59)"/><path class="cls-17" d="M561.1,335h0a28.43,28.43,0,0,0-2.14-7.55l-19.24,6.28-17.48,4c-6.48,1.44-14.31,3.18-21.21,4.74-7.75,1.76-12.89,7.64-11.19,15.4l1.94,9.4c10.83-.14,56.11-1.72,66.12-7.23C562.73,357.41,564.31,348.79,561.1,335Z" transform="translate(-49.33 -77.59)"/><path class="cls-19" d="M503.5,305.53s9.14-4.13,11.65,0c1.38,2.27.43,6.48-2.69,8.25S491.73,323,475.1,327.16a39.93,39.93,0,0,0-1.86-4.74,88.22,88.22,0,0,0,14.88-8.3,94.55,94.55,0,0,1,15.38-8.59Z" transform="translate(-49.33 -77.59)"/><path class="cls-19" d="M505.78,277,498,308.28s.81,7.91,8.8,4S520,283.49,520,283.49Z" transform="translate(-49.33 -77.59)"/><path class="cls-4" d="M519,294.49c-1-.24-1.9-.49-2.79-.76s-1.78-.55-2.61-.84a44,44,0,0,1-11.46-5.61c2.34-10.18,5.15-17,7.66-21.51a1.86,1.86,0,0,0,.19-.34l.2-.33a19.61,19.61,0,0,1,5.45-5.67l.66-.46.92,16.34.16,1.68Z" transform="translate(-49.33 -77.59)"/><path class="cls-20" d="M519,294.49c-1-.24-1.9-.49-2.79-.76s-1.78-.55-2.61-.84c1.57-11,3-17.92,3-17.92l.8,2Z" transform="translate(-49.33 -77.59)"/><path class="cls-4" d="M565.28,266.24c-.19,4.83-1,12.6-1.77,20.4-.23,2.47-.46,5-.64,7.36-.14,1.49-2.39,9.46-2.48,10.88-.4,6.82-3.74,11.93-.58,22.31a16.36,16.36,0,0,1,1,4.8c0,.71-.93,1.45-1.29,1.66-1.33.76-3.94,1.3-7.1,1.69h0a183.48,183.48,0,0,1-19.71.9c-6.8,0-17-1.08-18.32-2.8-1.18-1.57-.09-3.85.47-7,2.51-14.24,1.62-21.66,1.46-31.93,0-.26,0-.51,0-.78-.26-15.85-1.3-29.41-.57-34.3l.66-.46c1.08-.74,2.14-1.39,3.16-2l.32-.18c.31-.18.63-.35.93-.51a2.42,2.42,0,0,1,.36-.18,77.05,77.05,0,0,1,7.6-3c.24-.08.47-.16.66-.21,1.81-.11,3.79-.14,5.91-.08,1.85.06,4.68.3,7.76.7h0a81.66,81.66,0,0,1,10.3,1.93l0,0a21.21,21.21,0,0,1,8.11,5.68A27,27,0,0,1,565.28,266.24Z" transform="translate(-49.33 -77.59)"/><path class="cls-20" d="M559.81,327.19a16.36,16.36,0,0,1,1,4.8c0,.71-.93,1.45-1.29,1.66-1.33.76-3.94,1.3-7.1,1.69,1.3-.16,3.55-2.23,3.55-4.09,0-1.31-1.69-10.13-1.22-15.82s1.39-14.74-.37-22-3.43-16.77-3.43-16.77l9.93,6s1.28,1.8,2.68,4c-.23,2.47-.46,5-.64,7.36C562.73,295.49,556.65,316.81,559.81,327.19Z" transform="translate(-49.33 -77.59)"/><path class="cls-17" d="M516.13,224.35s.86,10.39,4.3,11.09,2.6-3.72,2.6-3.72l-.48-4.93Z" transform="translate(-49.33 -77.59)"/><path class="cls-19" d="M532,262c-6.74-.8-4.23-7.36-3.3-8.86.24-.08,1.4-.43,1.49-.49h0a1.89,1.89,0,0,0,.53-.78c.66-1.73.36-5.17.33-5.4h0v-.62c.11-.41.23-.8.31-1.17l3.55-2.79,7.5-5.89s-2,9.86-.39,16.08a2.34,2.34,0,0,0,1,1.49s0,0,0,0a1.67,1.67,0,0,0,.75.27C545.64,254.68,543.07,263.3,532,262Z" transform="translate(-49.33 -77.59)"/><path class="cls-21" d="M538,242.24a11.17,11.17,0,0,1-7.21,9.6c.67-1.71.36-5.16.34-5.38l3-2.35Z" transform="translate(-49.33 -77.59)"/><path class="cls-19" d="M517.78,225.83s1.55,21.55,7.37,23.38a15.13,15.13,0,0,0,12.74-6.46c1.53-2.06,3.47-2.53,4.1-5,1-4,2.48-11.51.63-16C540,215.32,518,210.24,517.78,225.83Z" transform="translate(-49.33 -77.59)"/><path class="cls-17" d="M542.71,218.17c-.1-3.91-4.06-5.38-4.06-5.38-3.94-1.84-12.14-1-20.59.84-2,.44-4.47-.77-5.85.19-1.67,1.16,0,6.46,0,6.46,3.26,9.87,15.26,6.66,18.86,5.44.86,2.54.75,6.07,2.88,7.9,1.22,1,3.34,1.06,5.49.71.27.5,1.26.94,1.46,1.63.68,2.31.58,5.92.56,8.7l1-.49C542.6,243.41,553.12,218.49,542.71,218.17Z" transform="translate(-49.33 -77.59)"/><path class="cls-22" d="M523.74,233.09c.31,1.79-.57,3.43-2,3.67s-2.77-1-3.07-2.81.58-3.44,2-3.67S523.44,231.3,523.74,233.09Z" transform="translate(-49.33 -77.59)"/><path class="cls-22" d="M530.77,231.78c.31,1.78-.57,3.43-2,3.66s-2.76-1-3.07-2.81.58-3.43,2-3.67S530.47,230,530.77,231.78Z" transform="translate(-49.33 -77.59)"/><path class="cls-22" d="M523.74,233.09s.31-.5,1.93-.36" transform="translate(-49.33 -77.59)"/><line class="cls-22" x1="481.5" y1="154.61" x2="487.51" y2="153.65"/><path class="cls-19" d="M537.29,238.87c4.13,1.59,5.43-8.6,1.5-9.05-3-.34-3.11,3.81-3.11,3.81S534.92,238,537.29,238.87Z" transform="translate(-49.33 -77.59)"/><g class="cls-23"><path class="cls-21" d="M538.65,231.36a3.31,3.31,0,0,0-.51.72,4.29,4.29,0,0,0-.51,1.74,5.47,5.47,0,0,0,0,1c0,.32,0,.63.07.89s0,.5.07.66,0,.26,0,.26l-.14-.21a3.58,3.58,0,0,1-.34-.59,3.63,3.63,0,0,1-.3-.93,3.51,3.51,0,0,1-.08-1.13,3.15,3.15,0,0,1,.31-1.12,2.49,2.49,0,0,1,.6-.82A1.9,1.9,0,0,1,538.65,231.36Z" transform="translate(-49.33 -77.59)"/><path class="cls-21" d="M539.3,233.29a2.1,2.1,0,0,0-.4.1,2.14,2.14,0,0,0-.74.47,2.12,2.12,0,0,0-.53,1l-.68-.24a3.55,3.55,0,0,1,.24-.41,2.21,2.21,0,0,1,.76-.68,2.32,2.32,0,0,1,.92-.29A1.89,1.89,0,0,1,539.3,233.29Z" transform="translate(-49.33 -77.59)"/></g><path class="cls-19" d="M577.08,309.65h0c-1.81,2.11-8.72,3.65-12,.73-1-.93-2.22-3.38-3.38-6.42a199.82,199.82,0,0,1-5.73-19.4l15.45-7.89s2,8.91,3.7,17.38c0,0,0,.08,0,.23.56,2.71,1.08,5.38,1.49,7.67l0,.18A33,33,0,0,1,577.08,309.65Z" transform="translate(-49.33 -77.59)"/><path class="cls-4" d="M550.09,273.75c1.49,6.21,6.18,18,6.18,18a24.57,24.57,0,0,0,11.34-1.37,20.85,20.85,0,0,0,7.22-4.69s-3.11-8.74-5.9-15c-2.51-5.64-4-7.74-5.1-8.86a24.42,24.42,0,0,0-6.13-4.56Z" transform="translate(-49.33 -77.59)"/><path class="cls-4" d="M569.62,277.8l-9.06-3.91-7.14-18.4s1.3.4,3,1.09h0l.23.1.13.05c1.54.72,7.52,4.25,11.65,17,0,.11.07.21.1.32.44,1.48.76,2.66.94,3.27a1.8,1.8,0,0,0,0,.19Z" transform="translate(-49.33 -77.59)"/><path class="cls-19" d="M577.08,309.65h0c-.13,1.14-.44,1.95-1,2.24l-1.44.86a77.69,77.69,0,0,1-9.58,5,346.73,346.73,0,0,1-33.43,12,39,39,0,0,0-2-4.67,87.81,87.81,0,0,0,14.52-8.91c7.2-5.5,17.56-12.18,17.56-12.18l2.62-3.08s9.3-8.56,10.8-6.83c0,0,0,.08,0,.23.23.89,1,4.18,1.49,7.67l0,.18A33,33,0,0,1,577.08,309.65Z" transform="translate(-49.33 -77.59)"/><path class="cls-19" d="M530.64,324.54a5.74,5.74,0,0,1-3.67.71c-1-.22-1.44-.64-2.2-.77a17.44,17.44,0,0,1-3.77-.88c-1-.49-1.39-.54-1.36.46s2,1.87,2.54,2.15a5,5,0,0,1,1.28,1.28c.07.11-3.28,1.87-4.19,1.52a2.53,2.53,0,0,0-.11,1.26c.15.45.84.61.89.83s-.15.69,0,1,.77.37,1,1,0,.6.16,1.21,1,.72,1.11,1,.07.68.39.9,3.35-.75,4.45-1.23,4.05-4.71,7.32-6.16Z" transform="translate(-49.33 -77.59)"/><path class="cls-24" d="M546.08,343.48H522.59v-2.3h23.49a1.14,1.14,0,0,1,1.15,1.15h0A1.15,1.15,0,0,1,546.08,343.48Z" transform="translate(-49.33 -77.59)"/><path class="cls-24" d="M533.37,343.48H474.54a1.58,1.58,0,0,1-1.52-1.15L461,299a1.51,1.51,0,0,1,1.45-1.91h56.9a3,3,0,0,1,2.84,2.16l12,43.19A.83.83,0,0,1,533.37,343.48Z" transform="translate(-49.33 -77.59)"/><path class="cls-25" d="M531.24,343.48H472.41a1.55,1.55,0,0,1-1.51-1.15l-12-43.35a1.51,1.51,0,0,1,1.45-1.91h56.9a3,3,0,0,1,2.84,2.16l12,43.19A.83.83,0,0,1,531.24,343.48Z" transform="translate(-49.33 -77.59)"/><path class="cls-26" d="M298.06,315.47l6.82-7a17.73,17.73,0,0,1,.61-3.77c.37-.66,1.33-3.09,1.8-3.36a2.55,2.55,0,0,1,1.44,0,6.43,6.43,0,0,1,1.37-.32,4.07,4.07,0,0,1,1.22.39s1-.07,1.44-.07a.91.91,0,0,1,.56.12,28.68,28.68,0,0,1,2.44-2.52c.8-.64,2-1.81,2.37-1.81s.49.6.25,1.24a7,7,0,0,1-1.33,1.66l-3.11,4.71a6,6,0,0,0,.82-.39c.28-.18,2.18-1.95,2.29-2s1-.63,1.46-.07-3.25,5.06-3.85,5.66a33.46,33.46,0,0,1-4.05,2.34s-3.63,6.54-4,7S298.06,315.47,298.06,315.47Z" transform="translate(-49.33 -77.59)"/><path class="cls-26" d="M304.48,283.22s-3.81,22-7.39,22.56c0,0-14.31.58-17.49-16.78-2.77-15,8.32-18.25,13.5-17.1S305.59,273.8,304.48,283.22Z" transform="translate(-49.33 -77.59)"/><path class="cls-26" d="M291.84,302.25s-2,2.71-2.71,9.25a21.24,21.24,0,0,1-11.45-2A81,81,0,0,0,281,290.27" transform="translate(-49.33 -77.59)"/><path class="cls-17" d="M287.8,268.2c-7.82,1.73-7.19,6.6-7.19,6.6-3.66.91-4.45,2.42-4.42,9.17s2.48,14.87,3.83,15.53,9,.69,9.62.46,3.32-6.43,2.69-7.52,0-5.38,1.81-5.54,1.44,2.6,1.44,2.6l1.46-.32,1.13-2.77c10.33.61,13-11.16,13-11.16C308.69,273.63,295.62,266.48,287.8,268.2Z" transform="translate(-49.33 -77.59)"/><path class="cls-19" d="M201,417.49l7.9,1.14-2.62,9.23-8.56-2.16a5.56,5.56,0,0,1,1.78-8.21A2.81,2.81,0,0,1,201,417.49Z" transform="translate(-49.33 -77.59)"/><path d="M260,393.78l-11.65-35.27s-3.53-1.26-5.34,0c0,0-12.13,6.53-10.84,25.13,1,14,3.94,29.25,5.14,35.35l-31.08-1.15a10.59,10.59,0,0,0-1.36,10.49s39.06,10.5,44.56,11.47c4.47.79,9.37,1.4,11.73-.62C265.34,435.61,260,393.78,260,393.78Z" transform="translate(-49.33 -77.59)"/><path class="cls-19" d="M237.83,417.49l7.9,1.14-2.62,9.23-8.56-2.16a5.56,5.56,0,0,1,1.78-8.21A2.81,2.81,0,0,1,237.83,417.49Z" transform="translate(-49.33 -77.59)"/><path class="cls-25" d="M235,422.33c-.18,1.81,1.41,3.45,1.12,3.9s-5.6,9.37-5.6,9.37,4,1.75,3.36,4.27H223.68a8.4,8.4,0,0,1-2.58-5.82,29.46,29.46,0,0,1,2.5-7.44c1.81-3.5,5.93-11.38,5.93-11.38a5.7,5.7,0,0,1,3.38.06,20.56,20.56,0,0,1,4.92,2.2S235.4,417.84,235,422.33Z" transform="translate(-49.33 -77.59)"/><path class="cls-17" d="M316.33,431.77c-2.51-9.36-26.1-49.31-34.09-60.1-16.39-7.12-33.87-13.16-33.87-13.16-7.23,1.72-10.79,16.29-6.69,26,2.82,6.66,20.66,23.42,31.58,33.29l-30.32,0s-3.57,5.34-.33,10.41c0,0,50.42,11.47,54.84,12.11s14.35,0,14.35,0S318.44,439.64,316.33,431.77Z" transform="translate(-49.33 -77.59)"/><path class="cls-25" d="M198.16,422.33c-.18,1.81,1.41,3.45,1.12,3.9s-5.6,9.37-5.6,9.37,4,1.75,3.36,4.27H186.88a8.4,8.4,0,0,1-2.58-5.82,29.46,29.46,0,0,1,2.5-7.44c1.81-3.5,5.93-11.38,5.93-11.38a5.7,5.7,0,0,1,3.38.06,20.78,20.78,0,0,1,4.92,2.2S198.6,417.84,198.16,422.33Z" transform="translate(-49.33 -77.59)"/><path class="cls-26" d="M354.29,308.68,338,337.28l-11.65-11.61L316.75,340l2.79,1.35-1,.83s22.47,10.95,25.16,8.53,15.24-38.8,15.24-38.8Z" transform="translate(-49.33 -77.59)"/><path class="cls-25" d="M328.46,327.49s-3.07,12.95-9.21,19.09l-15.71-6s-7.29,12.26-14.42,21.66c-2.74,3.63-3.65,8.74-6.87,9.41-.2-.07-.39-.13-.59-.18-8.73-2.62-21.61.16-32.24-3.79-11.74-4.37-9.46-6.83-9.46-6.83a151.65,151.65,0,0,0,11.16-26.42A162,162,0,0,0,255,318.52a18.34,18.34,0,0,1,15.44-14.77l.26,0c8.9-1.13,32.2,1.62,36.73,3.56S328.46,327.49,328.46,327.49Z" transform="translate(-49.33 -77.59)"/><path class="cls-27" d="M303.54,340.6s-7.29,12.26-14.42,21.66c-2.74,3.63-3.65,8.74-6.87,9.41,1.41-.5,3.75-7.92,4.58-9.59s2.17-3.33,5.05-9.16,6.77-14.4,6.77-14.4Z" transform="translate(-49.33 -77.59)"/><path d="M273.26,417.8a6.38,6.38,0,0,1,.68-.11c.44-.05,1.06-.14,1.82-.17a30,30,0,0,1,5.5.26,28.64,28.64,0,0,1,2.9.55,21.1,21.1,0,0,1,2.47.73,17.38,17.38,0,0,1,1.68.69c.4.18.62.3.62.3l-.68-.1c-.43-.09-1.05-.18-1.78-.3-1.46-.25-3.41-.56-5.36-.82-1-.15-1.95-.26-2.86-.38l-2.52-.32Z" transform="translate(-49.33 -77.59)"/><path class="cls-26" d="M366.44,298.15a15.37,15.37,0,0,0-2.73,2l.93-1.77a17.81,17.81,0,0,0,1.66-1.84c.45-.65.21-1.3-.13-1.33A13.32,13.32,0,0,0,363.6,297l.19-.36a17.11,17.11,0,0,0,1.67-1.83c.44-.65.21-1.3-.14-1.34a22.29,22.29,0,0,0-3.17,2.34l-1.37,1.84,1-2a8.11,8.11,0,0,0,.91-1.39c.36-.73.1-.95-.1-1.19s-2.1,1.17-2.59,1.74a28.63,28.63,0,0,0-2.14,3.18l-1.58,3.28c-.11-.95-.26-2.58-.38-3.62-.16-1.49-1.51-1.84-1.56-1.12s-.8,4.31-.63,6.25.5,3.21.62,4.3-1,3.27-1,3.27,4.52,2.81,5.27,2a34.81,34.81,0,0,0,3.11-4,20.93,20.93,0,0,0,1.77-4l1.42-3a17.36,17.36,0,0,0,1.66-1.83C367,298.84,366.79,298.19,366.44,298.15Z" transform="translate(-49.33 -77.59)"/><path class="cls-28" d="M626.19,207.07H573.13a6.16,6.16,0,0,0-6.16,6.16v12.54a6.17,6.17,0,0,0,5.38,6.11.88.88,0,0,1,.78.88v6.86a.41.41,0,0,0,.74.24l5.4-7.56a.88.88,0,0,1,.73-.37h46.19a6.16,6.16,0,0,0,6.16-6.16V213.23A6.16,6.16,0,0,0,626.19,207.07Z" transform="translate(-49.33 -77.59)"/><path class="cls-28" d="M581.27,219.48a2,2,0,1,1-2-2A2,2,0,0,1,581.27,219.48Z" transform="translate(-49.33 -77.59)"/><path class="cls-28" d="M591.48,219.48a2,2,0,1,1-2-2A2,2,0,0,1,591.48,219.48Z" transform="translate(-49.33 -77.59)"/><path class="cls-28" d="M601.69,219.48a2,2,0,1,1-2-2A2,2,0,0,1,601.69,219.48Z" transform="translate(-49.33 -77.59)"/><path class="cls-28" d="M611.9,219.48a2,2,0,1,1-2-2A2,2,0,0,1,611.9,219.48Z" transform="translate(-49.33 -77.59)"/><path class="cls-28" d="M622.11,219.48a2,2,0,1,1-2-2A2,2,0,0,1,622.11,219.48Z" transform="translate(-49.33 -77.59)"/><path class="cls-28" d="M206.89,262H260a6.16,6.16,0,0,1,6.16,6.16v12.53a6.15,6.15,0,0,1-5.38,6.11.9.9,0,0,0-.78.88v6.87a.4.4,0,0,1-.73.23l-5.41-7.55a.89.89,0,0,0-.73-.38H206.89a6.16,6.16,0,0,1-6.16-6.16V268.19A6.16,6.16,0,0,1,206.89,262Z" transform="translate(-49.33 -77.59)"/><path class="cls-28" d="M251.81,274.44a2,2,0,1,0,2-2A2,2,0,0,0,251.81,274.44Z" transform="translate(-49.33 -77.59)"/><path class="cls-28" d="M241.6,274.44a2,2,0,1,0,2-2A2,2,0,0,0,241.6,274.44Z" transform="translate(-49.33 -77.59)"/><path class="cls-28" d="M231.4,274.44a2,2,0,1,0,2-2A2,2,0,0,0,231.4,274.44Z" transform="translate(-49.33 -77.59)"/><path class="cls-28" d="M221.19,274.44a2,2,0,1,0,2-2A2,2,0,0,0,221.19,274.44Z" transform="translate(-49.33 -77.59)"/><path class="cls-28" d="M211,274.44a2,2,0,1,0,2-2A2,2,0,0,0,211,274.44Z" transform="translate(-49.33 -77.59)"/><path class="cls-29" d="M527.36,178.15H430.64A9.66,9.66,0,0,1,421,168.5h0a9.66,9.66,0,0,1,9.66-9.66h96.72A9.66,9.66,0,0,1,537,168.5h0A9.66,9.66,0,0,1,527.36,178.15Z" transform="translate(-49.33 -77.59)"/><path class="cls-30" d="M525.94,167.83a5.14,5.14,0,1,1-5.14-5.14A5.14,5.14,0,0,1,525.94,167.83Z" transform="translate(-49.33 -77.59)"/><line class="cls-31" x1="475.1" y1="93.87" x2="477.94" y2="96.7"/><rect class="cls-32" x="299.48" y="323.49" width="39.75" height="39.75" rx="7.71"/><rect class="cls-15" x="292.24" y="323.49" width="39.75" height="39.75" rx="7.71"/><path class="cls-4" d="M356.75,413.45,368.16,420a1.06,1.06,0,0,1,0,1.83l-11.41,6.59a1.06,1.06,0,0,1-1.59-.92V414.37A1.06,1.06,0,0,1,356.75,413.45Z" transform="translate(-49.33 -77.59)"/><rect class="cls-32" x="541.32" y="311.28" width="51.96" height="51.96" rx="10.08"/><rect class="cls-15" x="531.85" y="311.28" width="51.96" height="51.96" rx="10.08"/><path class="cls-4" d="M613.41,401.62a6.25,6.25,0,1,1-6.25-6.24A6.24,6.24,0,0,1,613.41,401.62Z" transform="translate(-49.33 -77.59)"/><path class="cls-4" d="M620.18,422.75V432a1.52,1.52,0,0,1-1.51,1.51h-23a1.51,1.51,0,0,1-1.51-1.51v-9.22a13,13,0,0,1,13-13h0A13,13,0,0,1,620.18,422.75Z" transform="translate(-49.33 -77.59)"/><path class="cls-13" d="M491,189.28H470.54a1.54,1.54,0,0,1-1.54-1.53h0a1.54,1.54,0,0,1,1.54-1.54H491a1.54,1.54,0,0,1,1.54,1.54h0A1.54,1.54,0,0,1,491,189.28Z" transform="translate(-49.33 -77.59)"/><path class="cls-13" d="M511.4,189.28H496.62a1.54,1.54,0,0,1-1.54-1.53h0a1.54,1.54,0,0,1,1.54-1.54H511.4a1.54,1.54,0,0,1,1.54,1.54h0A1.54,1.54,0,0,1,511.4,189.28Z" transform="translate(-49.33 -77.59)"/><path class="cls-13" d="M479.22,196h-8.68A1.54,1.54,0,0,1,469,194.5h0a1.54,1.54,0,0,1,1.54-1.54h8.68a1.54,1.54,0,0,1,1.53,1.54h0A1.54,1.54,0,0,1,479.22,196Z" transform="translate(-49.33 -77.59)"/><path class="cls-13" d="M511.4,196h-27a1.54,1.54,0,0,1-1.54-1.53h0a1.54,1.54,0,0,1,1.54-1.54h27a1.54,1.54,0,0,1,1.54,1.54h0A1.54,1.54,0,0,1,511.4,196Z" transform="translate(-49.33 -77.59)"/><path class="cls-13" d="M497.46,202.78H470.54a1.54,1.54,0,0,1-1.54-1.53h0a1.54,1.54,0,0,1,1.54-1.54h26.92a1.54,1.54,0,0,1,1.54,1.54h0A1.54,1.54,0,0,1,497.46,202.78Z" transform="translate(-49.33 -77.59)"/><path class="cls-13" d="M511.4,202.78h-8.68a1.53,1.53,0,0,1-1.53-1.53h0a1.53,1.53,0,0,1,1.53-1.54h8.68a1.54,1.54,0,0,1,1.54,1.54h0A1.54,1.54,0,0,1,511.4,202.78Z" transform="translate(-49.33 -77.59)"/><rect class="cls-32" x="107.81" y="224.83" width="78.96" height="43.65" rx="3.82"/><line class="cls-33" x1="111.16" y1="230.73" x2="183.41" y2="230.73"/><circle class="cls-4" cx="181.51" cy="227.73" r="0.87"/><circle class="cls-4" cx="176.94" cy="227.73" r="0.87"/><circle class="cls-4" cx="172.38" cy="227.73" r="0.88"/><path class="cls-34" d="M174,314.2H161.71A1.21,1.21,0,0,1,160.5,313h0a1.21,1.21,0,0,1,1.21-1.21H174a1.21,1.21,0,0,1,1.21,1.21h0A1.21,1.21,0,0,1,174,314.2Z" transform="translate(-49.33 -77.59)"/><path class="cls-34" d="M174,319.78H161.71a1.21,1.21,0,0,1-1.21-1.21h0a1.21,1.21,0,0,1,1.21-1.21H174a1.21,1.21,0,0,1,1.21,1.21h0A1.21,1.21,0,0,1,174,319.78Z" transform="translate(-49.33 -77.59)"/><path class="cls-34" d="M174,325.36H161.71a1.21,1.21,0,0,1-1.21-1.2h0a1.21,1.21,0,0,1,1.21-1.21H174a1.21,1.21,0,0,1,1.21,1.21h0A1.21,1.21,0,0,1,174,325.36Z" transform="translate(-49.33 -77.59)"/><path class="cls-34" d="M174,331H161.71a1.21,1.21,0,0,1-1.21-1.21h0a1.21,1.21,0,0,1,1.21-1.21H174a1.21,1.21,0,0,1,1.21,1.21h0A1.21,1.21,0,0,1,174,331Z" transform="translate(-49.33 -77.59)"/><path class="cls-34" d="M174,336.53H161.71a1.21,1.21,0,0,1-1.21-1.21h0a1.21,1.21,0,0,1,1.21-1.21H174a1.21,1.21,0,0,1,1.21,1.21h0A1.21,1.21,0,0,1,174,336.53Z" transform="translate(-49.33 -77.59)"/><path class="cls-34" d="M174,342.11H161.71a1.21,1.21,0,0,1-1.21-1.2h0a1.21,1.21,0,0,1,1.21-1.21H174a1.21,1.21,0,0,1,1.21,1.21h0A1.21,1.21,0,0,1,174,342.11Z" transform="translate(-49.33 -77.59)"/><path class="cls-35" d="M231.54,314.2H178.71A1.21,1.21,0,0,1,177.5,313h0a1.21,1.21,0,0,1,1.21-1.21h52.83a1.21,1.21,0,0,1,1.21,1.21h0A1.21,1.21,0,0,1,231.54,314.2Z" transform="translate(-49.33 -77.59)"/><path class="cls-35" d="M231.54,319.78H178.71a1.21,1.21,0,0,1-1.21-1.21h0a1.21,1.21,0,0,1,1.21-1.21h52.83a1.21,1.21,0,0,1,1.21,1.21h0A1.21,1.21,0,0,1,231.54,319.78Z" transform="translate(-49.33 -77.59)"/><path class="cls-35" d="M231.54,325.36H178.71a1.21,1.21,0,0,1-1.21-1.2h0a1.21,1.21,0,0,1,1.21-1.21h52.83a1.21,1.21,0,0,1,1.21,1.21h0A1.21,1.21,0,0,1,231.54,325.36Z" transform="translate(-49.33 -77.59)"/><path class="cls-35" d="M231.54,331H178.71a1.21,1.21,0,0,1-1.21-1.21h0a1.21,1.21,0,0,1,1.21-1.21h52.83a1.21,1.21,0,0,1,1.21,1.21h0A1.21,1.21,0,0,1,231.54,331Z" transform="translate(-49.33 -77.59)"/><path class="cls-35" d="M231.54,336.53H178.71a1.21,1.21,0,0,1-1.21-1.21h0a1.21,1.21,0,0,1,1.21-1.21h52.83a1.21,1.21,0,0,1,1.21,1.21h0A1.21,1.21,0,0,1,231.54,336.53Z" transform="translate(-49.33 -77.59)"/><path class="cls-35" d="M231.54,342.11H178.71a1.21,1.21,0,0,1-1.21-1.2h0a1.21,1.21,0,0,1,1.21-1.21h52.83a1.21,1.21,0,0,1,1.21,1.21h0A1.21,1.21,0,0,1,231.54,342.11Z" transform="translate(-49.33 -77.59)"/><circle class="cls-1" cx="570.87" cy="110.49" r="32.51" transform="translate(281.07 562.31) rotate(-76.53)"/><circle class="cls-5" cx="570.87" cy="110.49" r="28.26" transform="translate(-45.22 162.84) rotate(-23.87)"/><path class="cls-4" d="M573.44,110.49a2.58,2.58,0,1,1-2.57-2.57A2.57,2.57,0,0,1,573.44,110.49Z" transform="translate(-49.33 -77.59)"/><path class="cls-4" d="M570.58,110h0a.81.81,0,0,1-1.09-.31l-8.31-15a.8.8,0,0,1,.31-1.09h0a.82.82,0,0,1,1.1.31l8.31,15A.81.81,0,0,1,570.58,110Z" transform="translate(-49.33 -77.59)"/><path class="cls-4" d="M571.27,110.9h0a.81.81,0,0,1,1.14,0l7.19,7.19a.8.8,0,0,1,0,1.14h0a.8.8,0,0,1-1.14,0L571.27,112A.81.81,0,0,1,571.27,110.9Z" transform="translate(-49.33 -77.59)"/><line class="cls-36" x1="521.71" y1="10.28" x2="521.71" y2="7.03"/><line class="cls-36" x1="544.15" y1="33.07" x2="547.4" y2="33.07"/><line class="cls-36" x1="521.36" y1="55.52" x2="521.36" y2="58.77"/><line class="cls-36" x1="498.91" y1="32.73" x2="495.66" y2="32.73"/><g class="cls-23"><line class="cls-37" x1="510.37" y1="13.22" x2="508.75" y2="10.41"/><line class="cls-37" x1="541.21" y1="21.74" x2="544.02" y2="20.12"/><line class="cls-37" x1="532.69" y1="52.58" x2="534.32" y2="55.39"/><line class="cls-37" x1="501.86" y1="44.06" x2="499.04" y2="45.69"/></g><g class="cls-23"><line class="cls-37" x1="502.03" y1="21.44" x2="499.21" y2="19.82"/><line class="cls-37" x1="532.99" y1="13.4" x2="534.62" y2="10.58"/><line class="cls-37" x1="541.03" y1="44.36" x2="543.85" y2="45.98"/><line class="cls-37" x1="510.07" y1="52.4" x2="508.45" y2="55.22"/></g><rect class="cls-32" x="90.06" y="141.65" width="54.83" height="54.83" rx="9.57"/><rect class="cls-38" x="85.81" y="136.9" width="54.83" height="54.83" rx="7.67"/><path class="cls-2" d="M172.06,235.63h-.29v-3.14a9.35,9.35,0,0,0-18.7,0v3.14H153a2.63,2.63,0,0,0-2.63,2.63v11.83a2.63,2.63,0,0,0,2.63,2.63h19.05a2.63,2.63,0,0,0,2.62-2.63V238.26A2.63,2.63,0,0,0,172.06,235.63Zm-16.62-3.14a7,7,0,0,1,14,0v3.14h-14Z" transform="translate(-49.33 -77.59)"/><path class="cls-39" d="M165.61,241.72a3.05,3.05,0,1,0-4.59,2.63.55.55,0,0,1,.28.61l-.53,2a1.83,1.83,0,1,0,3.54,0l-.53-1.94a.55.55,0,0,1,.28-.62A3,3,0,0,0,165.61,241.72Z" transform="translate(-49.33 -77.59)"/><path class="cls-2" d="M173.55,256.87h-22a1.14,1.14,0,0,1-1.13-1.13h0a1.13,1.13,0,0,1,1.13-1.12h22a1.12,1.12,0,0,1,1.13,1.12h0A1.13,1.13,0,0,1,173.55,256.87Z" transform="translate(-49.33 -77.59)"/><path class="cls-2" d="M173.55,260.68h-22a1.13,1.13,0,0,1-1.13-1.12h0a1.13,1.13,0,0,1,1.13-1.13h22a1.12,1.12,0,0,1,1.13,1.13h0A1.12,1.12,0,0,1,173.55,260.68Z" transform="translate(-49.33 -77.59)"/><rect class="cls-32" x="540.59" y="228.66" width="32.28" height="32.28" rx="5.63"/><rect class="cls-38" x="538.09" y="225.86" width="32.28" height="32.28" rx="4.51"/><path class="cls-4" d="M597,329.24a1.26,1.26,0,0,1-.27,0,1,1,0,0,1-.69-1.24L601,310.68a1,1,0,0,1,1.23-.69,1,1,0,0,1,.69,1.24L598,328.51A1,1,0,0,1,597,329.24Z" transform="translate(-49.33 -77.59)"/><path class="cls-4" d="M605.21,329.24a1.26,1.26,0,0,1-.28,0,1,1,0,0,1-.69-1.24l4.88-17.28a1,1,0,1,1,1.93.55l-4.88,17.28A1,1,0,0,1,605.21,329.24Z" transform="translate(-49.33 -77.59)"/><path class="cls-4" d="M612.2,316.68H594.92a1,1,0,0,1,0-2H612.2a1,1,0,0,1,0,2Z" transform="translate(-49.33 -77.59)"/><path class="cls-4" d="M612.2,324.57H594.92a1,1,0,0,1,0-2H612.2a1,1,0,0,1,0,2Z" transform="translate(-49.33 -77.59)"/><path class="cls-13" d="M226.87,236h-12.5a1.37,1.37,0,0,1-1.37-1.37h0a1.37,1.37,0,0,1,1.37-1.37h12.5a1.37,1.37,0,0,1,1.37,1.37h0A1.37,1.37,0,0,1,226.87,236Z" transform="translate(-49.33 -77.59)"/><path class="cls-13" d="M239.46,242.07H214.37A1.37,1.37,0,0,1,213,240.7h0a1.38,1.38,0,0,1,1.37-1.37h25.09a1.37,1.37,0,0,1,1.37,1.37h0A1.37,1.37,0,0,1,239.46,242.07Z" transform="translate(-49.33 -77.59)"/><path class="cls-13" d="M217.34,248.16h-3a1.38,1.38,0,0,1-1.37-1.37h0a1.37,1.37,0,0,1,1.37-1.37h3a1.37,1.37,0,0,1,1.37,1.37h0A1.38,1.38,0,0,1,217.34,248.16Z" transform="translate(-49.33 -77.59)"/><path class="cls-13" d="M239.46,248.16H222a1.38,1.38,0,0,1-1.37-1.37h0a1.37,1.37,0,0,1,1.37-1.37h17.47a1.37,1.37,0,0,1,1.37,1.37h0A1.37,1.37,0,0,1,239.46,248.16Z" transform="translate(-49.33 -77.59)"/><path class="cls-13" d="M239.46,236h-7.57a1.37,1.37,0,0,1-1.37-1.37h0a1.37,1.37,0,0,1,1.37-1.37h7.57a1.37,1.37,0,0,1,1.37,1.37h0A1.37,1.37,0,0,1,239.46,236Z" transform="translate(-49.33 -77.59)"/><path class="cls-4" d="M169,422.92a8.61,8.61,0,0,0-4.45,1.22,9.35,9.35,0,0,0-18.64,1.05,8.77,8.77,0,0,0,.06,1,7.14,7.14,0,1,0-1.32,14.15H169a8.73,8.73,0,1,0,0-17.45Z" transform="translate(-49.33 -77.59)"/><path class="cls-2" d="M107,385.44a9.26,9.26,0,0,1,.13-3.92,38.9,38.9,0,0,0-.44-21.14c-4.67-14.59-23.6-27.51-23.6-27.51s5.13,21.53,9.36,30.69c3.09,6.71,8.5,14.35,11.51,18.37a9,9,0,0,1,1.65,3.77A156.93,156.93,0,0,1,108.26,416l1.42.06A158,158,0,0,0,107,385.44Z" transform="translate(-49.33 -77.59)"/><path class="cls-40" d="M122.14,371.73a170.48,170.48,0,0,0,5.51-25.9s-17,14-18.37,24.84a36.43,36.43,0,0,0,1.16,15.1,10.35,10.35,0,0,1,.4,4.1,143.71,143.71,0,0,0-.35,28.36l1.28-.15a141.57,141.57,0,0,1,.2-26.62,10.54,10.54,0,0,1,2.34-5.62A44.5,44.5,0,0,0,122.14,371.73Z" transform="translate(-49.33 -77.59)"/><path class="cls-2" d="M139.39,345.28S121.1,352.07,116.32,367a39.83,39.83,0,0,0-.4,21.84,7.6,7.6,0,0,1,0,3.73,167.09,167.09,0,0,0-4.35,35.21H113a166.43,166.43,0,0,1,4.21-34.45,12.91,12.91,0,0,1,2.17-4.64c3.12-4.2,8.43-11.76,11.5-18.43C135.23,360.88,139.39,345.28,139.39,345.28Z" transform="translate(-49.33 -77.59)"/><path class="cls-40" d="M107.12,408.29a51,51,0,0,0-4.22-16.6,5.61,5.61,0,0,1-.43-3,27.57,27.57,0,0,0-.43-8.93c-1.48-7.33-11.21-23.16-25.29-24.09A102.92,102.92,0,0,1,84.11,370c3.16,8.27,7.68,16.92,15.16,20.24a5.62,5.62,0,0,1,2.9,3,48.83,48.83,0,0,1,3.67,15.12Z" transform="translate(-49.33 -77.59)"/><path class="cls-2" d="M97.6,440.36h23.24l6-36.84a2.69,2.69,0,0,0-2.65-3.11h-30a2.67,2.67,0,0,0-2.64,3.11Z" transform="translate(-49.33 -77.59)"/><line class="cls-41" x1="0.56" y1="362.77" x2="650.78" y2="362.77"/></g></svg>